# xmcd
#
# Track frame offsets:
#	150
#	15471
#	30395
#	46794
#	58958
#	72332
#	88418
#	103265
#	118651
#	134926
#	147473
#	159241
#	173325
#	188706
#
# Disc length: 2681 seconds
#
# Revision: 0
# Processed by: cddbd v1.5.2PL0 Copyright (c) Steve Scherf et al.
# Submitted via: audiograbber 1.83.01
#
DISCID=c50a770e
DTITLE=Tirol Sound - Das ABC der Volksmusik
DYEAR=2013
DGENRE=volkstümlich
TTITLE0=Das ABC ist der Tiroler Schmäh
TTITLE1=Die alte Musicbox
TTITLE2=Tirol a Land zum Verlieben
TTITLE3=Griass di Gott
TTITLE4=Dich lieb ich bis ich sterbe
TTITLE5=Traktorführerschein
TTITLE6=Mein Herz sagt ja
TTITLE7=Simone
TTITLE8=Des mit dir ist wie Hollywood
TTITLE9=Mein kleines Herz
TTITLE10=Heit lass mas richtig umma
TTITLE11=Gnadenlos
TTITLE12=Sie macht mich wahnsinnig
TTITLE13=Das kleine Küken piept
EXTD=
EXTT0=
EXTT1=
EXTT2=
EXTT3=
EXTT4=
EXTT5=
EXTT6=
EXTT7=
EXTT8=
EXTT9=
EXTT10=
EXTT11=
EXTT12=
EXTT13=
PLAYORDER=
